<svg height="30" viewBox="-53 0 511 512" width="30" xmlns="http://www.w3.org/2000/svg"><path d="m219.453125 357.945312-118.945313.054688s-.003906 0-.007812 0c-11.042969 0-19.996094-8.945312-20-19.988281-.007812-11.046875 8.945312-20.007813 19.988281-20.011719l118.945313-.054688h.007812c11.042969 0 19.996094 8.945313 20 19.988282.007813 11.046875-8.941406 20.003906-19.988281 20.011718zm-27.019531 33-91.945313.054688c-11.046875.007812-19.996093 8.96875-19.988281 20.011719s8.960938 19.988281 20 19.988281h.011719l91.945312-.054688c11.046875-.007812 19.996094-8.96875 19.988281-20.011718-.007812-11.042969-8.960937-19.988282-20-19.988282-.003906 0-.007812 0-.011718 0zm208.125-3.71875-118.96875 118.859376c-.003906 0-.003906 0-.003906.003906l-.007813.003906c-.023437.027344-.054687.050781-.082031.078125-.4375.429687-.890625.84375-1.363282 1.230469-.121093.101562-.25.183594-.375.28125-.390624.304687-.785156.609375-1.199218.886718-.109375.074219-.226563.132813-.339844.207032-.4375.28125-.878906.554687-1.339844.800781-.078125.039063-.15625.074219-.230468.113281-.503907.257813-1.015626.507813-1.542969.726563-.042969.019531-.085938.03125-.128907.046875-.558593.226562-1.125.433594-1.707031.613281-.046875.011719-.09375.019531-.136719.035156-.578124.167969-1.160156.320313-1.753906.4375-.132812.027344-.269531.039063-.40625.0625-.503906.089844-1.011718.175781-1.53125.230469-.660156.066406-1.324218.101562-1.992187.101562l-186.941407.054688c-44.121093 0-80.007812-35.886719-80.007812-80v-352c0-44.113281 35.886719-80 80-80h245.890625c44.109375 0 80 35.886719 80 80l.023437 192.996094c0 11.046875-8.953124 20.003906-20 20.003906-11.046874 0-20-8.953125-20-19.996094l-.023437-193c0-22.058594-17.945313-40.003906-40-40.003906h-245.890625c-22.054688 0-40 17.945312-40 40v352c0 22.054688 17.945312 40 40 40l166.945312-.050781v-48.894531c0-38.597657 31.402344-70 70-70h68.988282c.664062 0 1.328125.035156 1.992187.101562.285157.027344.558594.082031.839844.121094.363281.050781.726563.09375 1.089844.167968.339843.066407.667969.160157 1.003906.246094.296875.074219.597656.136719.890625.230469.335938.101563.660156.226563.988281.34375.285157.101563.574219.195313.855469.3125.316406.132813.621094.285156.925781.433594.285157.132812.570313.257812.84375.402343.308594.167969.601563.355469.902344.535157.257813.15625.519531.300781.773437.472656.355469.234375.695313.5 1.035157.757813.175781.136718.363281.257812.535156.402343 1.03125.84375 1.976563 1.789063 2.820313 2.820313.128906.160156.242187.332031.371093.496094.269531.355468.542969.707031.789063 1.078124.152344.226563.28125.464844.425781.699219.199219.324219.398437.644531.582031.980469.128906.246094.238282.496094.355469.742188.164063.34375.332031.683593.480469 1.035156.097656.238281.175781.480468.261718.71875.140626.375.28125.746094.394532 1.128906.070312.230469.121094.464844.179687.695312.105469.402344.214844.796876.292969 1.203126.046875.246093.074219.496093.113281.742187.0625.394531.132813.789063.171875 1.191406.035156.351563.039063.699219.054688 1.050781.011718.296876.042968.589844.042968.894532 0 .292968-.03125.578125-.042968.867187-.015625.359375-.019532.722657-.054688 1.082031-.039062.410157-.113281.808594-.175781 1.210938-.039063.242188-.0625.484375-.109375.722656-.082031.414063-.191406.8125-.296875 1.214844-.0625.226562-.109375.457031-.175781.683594-.117188.386718-.261719.761718-.398438 1.136718-.085937.238282-.164062.476563-.261718.714844-.144532.351563-.316407.691406-.480469 1.035156-.117188.246094-.226563.496094-.355469.738282-.179688.339844-.382812.660156-.582031.984375-.140625.234375-.273438.46875-.421875.699219-.253906.378906-.535156.738281-.8125 1.097656-.121094.15625-.226563.320312-.351563.476562-.433593.519532-.890625 1.023438-1.367187 1.503906zm-113.113282 35.828126v20.636718l50.679688-50.636718h-20.679688c-16.542968 0-30 13.460937-30 30zm-21.132812-143.054688h-127.625c-10.019531 0-19.390625-4.457031-25.714844-12.230469-6.355468-7.808593-8.820312-17.945312-6.769531-27.816406 5.675781-27.332031 22.675781-50.109375 45.421875-63.851563-7.613281-10.414062-12.125-23.238281-12.125-37.101562 0-34.738281 28.261719-63 63-63s63 28.261719 63 63c0 13.863281-4.511719 26.6875-12.128906 37.101562 22.75 13.742188 39.746094 36.519532 45.425781 63.851563 2.050781 9.871094-.417969 20.007813-6.769531 27.816406-6.324219 7.773438-15.695313 12.230469-25.714844 12.230469zm-86.8125-141c0 12.683594 10.316406 23 23 23s23-10.316406 23-23-10.316406-23-23-23-23 10.316406-23 23zm77.824219 101c-8.234375-22.441406-29.882813-38-54.300781-38h-1.046876c-24.417968 0-46.066406 15.558594-54.300781 38zm0 0"/></svg>